<?xml version="1.0" encoding="utf-8"?>
<!-- Generator: Adobe Illustrator 19.0.0, SVG Export Plug-In . SVG Version: 6.00 Build 0)  -->
<svg version="1.1" id="Layer_1" xmlns="http://www.w3.org/2000/svg" xmlns:xlink="http://www.w3.org/1999/xlink" x="0px" y="0px"
	 viewBox="-49 141 512 512" style="enable-background:new -49 141 512 512;" xml:space="preserve">
<style type="text/css">
	.st0{fill:#557CF6;}
</style>
<g>
	<g>
		<g>
			<path class="st0" d="M44.9,576.2c2.2,0,4.4-0.8,6-2.5c3.3-3.3,3.3-8.7,0-12.1l-68.8-68.7c-0.6-0.5-14.1-12.6-14.1-36.2v-128
				c0-9.4,7.7-17.1,17.1-17.1c9.4,0,17.1,7.7,17.1,17.1v67.6c0,4.7,3.8,8.5,8.5,8.5s8.5-3.8,8.5-8.5v-67.6
				c0-18.8-15.3-34.1-34.1-34.1c-18.8,0-34.1,15.3-34.1,34.1v128c0,31.9,19.3,48.5,19.6,48.7l68.3,68.3
				C40.5,575.4,42.7,576.2,44.9,576.2z"/>
			<path class="st0" d="M428.9,294.6c-18.8,0-34.1,15.3-34.1,34.1v67.6c0,4.7,3.8,8.5,8.5,8.5s8.5-3.8,8.5-8.5v-67.6
				c0-9.4,7.7-17.1,17.1-17.1s17.1,7.7,17.1,17.1v128c0,23.6-13.5,35.7-14.6,36.6l-68.3,68.3c-3.3,3.3-3.3,8.7,0,12.1
				c1.7,1.7,3.8,2.5,6,2.5c2.2,0,4.4-0.8,6-2.5l67.7-67.8c0.8-0.7,20.1-17.3,20.1-49.2v-128C463,309.9,447.7,294.6,428.9,294.6z"/>
			<path class="st0" d="M2.7,448c0.4,8.6,4.1,16.9,10.5,23.3L55.9,514c3.3,3.3,8.7,3.3,12.1,0c3.3-3.3,3.3-8.7,0-12.1l-42.7-42.7
				c-3.4-3.4-5.3-7.6-5.5-11.9c-0.2-4.2,1.4-8.1,4.5-11.2c3.1-3.1,6.9-4.7,11.2-4.5c4.3,0.2,8.5,2.1,11.9,5.5l60.1,60.1
				c0.6,0.5,14.2,12.9,14.2,36.3v42.7c0,4.7,3.8,8.5,8.5,8.5s8.5-3.8,8.5-8.5v-42.7c0-31.4-19.2-48.4-19.6-48.7l-59.7-59.7
				c-6.4-6.4-14.7-10.2-23.3-10.5c-9.1-0.4-17.5,3-24,9.5C5.7,430.5,2.4,439.1,2.7,448z"/>
			<path class="st0" d="M147.3,601.8H10.7c-4.7,0-8.5,3.8-8.5,8.5v34.1c0,4.7,3.8,8.5,8.5,8.5s8.5-3.8,8.5-8.5v-25.6h119.5v25.6
				c0,4.7,3.8,8.5,8.5,8.5s8.5-3.8,8.5-8.5v-34.1C155.8,605.6,152,601.8,147.3,601.8z"/>
			<path class="st0" d="M275.3,533.5v42.7c0,4.7,3.8,8.5,8.5,8.5s8.5-3.8,8.5-8.5v-42.7c0-23.3,13.6-35.7,14.6-36.6l59.7-59.7
				c3.4-3.4,7.6-5.4,11.9-5.5c4.4-0.2,8.1,1.4,11.2,4.5c3.1,3.1,4.7,7,4.5,11.2c-0.2,4.3-2.1,8.5-5.5,11.9L346,501.9
				c-3.3,3.3-3.3,8.7,0,12.1c3.3,3.3,8.7,3.3,12.1,0l42.7-42.7c6.4-6.4,10.2-14.7,10.5-23.3c0.4-9-3-17.5-9.5-24
				c-6.5-6.5-14.9-9.8-24-9.5c-8.6,0.4-16.8,4.1-23.3,10.5l-59.3,59.3C294.5,485.1,275.3,502.1,275.3,533.5z"/>
			<path class="st0" d="M207,234.9c9.4,0,17.1,7.7,17.1,17.1c0,4.7,3.8,8.5,8.5,8.5s8.5-3.8,8.5-8.5c0-15.9-10.9-29.1-25.6-32.9
				v-1.2c0-4.7-3.8-8.5-8.5-8.5s-8.5,3.8-8.5,8.5v1.2c-14.7,3.8-25.6,17.1-25.6,32.9c0,18.8,15.3,34.1,34.1,34.1
				c9.4,0,17.1,7.7,17.1,17.1c0,9.4-7.7,17.1-17.1,17.1c-9.4,0-17.1-7.7-17.1-17.1c0-4.7-3.8-8.5-8.5-8.5s-8.5,3.8-8.5,8.5
				c0,15.9,10.9,29.1,25.6,32.9v1.2c0,4.7,3.8,8.5,8.5,8.5s8.5-3.8,8.5-8.5v-1.2c14.7-3.8,25.6-17.1,25.6-32.9
				c0-18.8-15.3-34.1-34.1-34.1c-9.4,0-17.1-7.7-17.1-17.1C189.9,242.5,197.6,234.9,207,234.9z"/>
			<path class="st0" d="M403.3,601.8H266.7c-4.7,0-8.5,3.8-8.5,8.5v34.1c0,4.7,3.8,8.5,8.5,8.5s8.5-3.8,8.5-8.5v-25.6h119.5v25.6
				c0,4.7,3.8,8.5,8.5,8.5s8.5-3.8,8.5-8.5v-34.1C411.8,605.6,408,601.8,403.3,601.8z"/>
			<path class="st0" d="M343.5,277.5c0-75.3-61.3-136.5-136.5-136.5S70.5,202.3,70.5,277.5S131.7,414.1,207,414.1
				S343.5,352.8,343.5,277.5z M207,397c-65.9,0-119.5-53.6-119.5-119.5S141.1,158.1,207,158.1s119.5,53.6,119.5,119.5
				S272.9,397,207,397z"/>
		</g>
	</g>
</g>
</svg>
