<?xml version="1.0" encoding="utf-8"?>
<!-- Generator: Adobe Illustrator 19.0.0, SVG Export Plug-In . SVG Version: 6.00 Build 0)  -->
<svg version="1.1" id="Layer_1" xmlns="http://www.w3.org/2000/svg" xmlns:xlink="http://www.w3.org/1999/xlink" x="0px" y="0px"
	 viewBox="-49 141 512 512" style="enable-background:new -49 141 512 512;" xml:space="preserve">
<style type="text/css">
	.st0{fill:#FF9D76;}
</style>
<g>
	<g>
		<g>
			<path class="st0" d="M44.9,576.2c2.2,0,4.4-0.8,6-2.5c3.3-3.3,3.3-8.7,0-12.1l-68.7-68.7c-0.6-0.5-14.1-12.6-14.1-36.2v-128
				c0-9.4,7.7-17.1,17.1-17.1c9.4,0,17.1,7.7,17.1,17.1v67.5c0,4.7,3.8,8.5,8.5,8.5c4.7,0,8.5-3.8,8.5-8.5v-67.5
				c0-18.8-15.3-34.1-34.1-34.1c-18.8,0-34.1,15.3-34.1,34.1v128c0,31.9,19.3,48.5,19.6,48.7l68.3,68.3
				C40.5,575.4,42.7,576.2,44.9,576.2z"/>
			<path class="st0" d="M147.3,601.8H10.7c-4.7,0-8.5,3.8-8.5,8.5v34.1c0,4.7,3.8,8.5,8.5,8.5c4.7,0,8.5-3.8,8.5-8.5v-25.6h119.5
				v25.6c0,4.7,3.8,8.5,8.5,8.5c4.7,0,8.5-3.8,8.5-8.5v-34.1C155.8,605.6,152,601.8,147.3,601.8z"/>
			<path class="st0" d="M2.7,448c0.3,8.6,4.1,16.9,10.5,23.3L55.9,514c3.3,3.3,8.7,3.3,12.1,0c3.3-3.3,3.3-8.7,0-12.1l-42.7-42.7
				c-3.4-3.4-5.3-7.6-5.5-11.9c-0.2-4.2,1.4-8.1,4.5-11.2c3.1-3.1,7-4.7,11.2-4.5c4.3,0.2,8.5,2.1,11.9,5.5l60.1,60.1
				c0.6,0.5,14.2,12.9,14.2,36.3v42.7c0,4.7,3.8,8.5,8.5,8.5c4.7,0,8.5-3.8,8.5-8.5v-42.7c0-31.4-19.2-48.4-19.6-48.7l-59.7-59.7
				c-6.4-6.4-14.7-10.2-23.3-10.5c-9-0.4-17.5,3-24,9.5C5.7,430.5,2.4,439.1,2.7,448z"/>
			<path class="st0" d="M295.3,484.4c-0.8,0.7-20,17.7-20,49.1v42.7c0,4.7,3.8,8.5,8.5,8.5c4.7,0,8.5-3.8,8.5-8.5v-42.7
				c0-23.3,13.6-35.7,14.6-36.6l59.7-59.7c3.4-3.4,7.6-5.4,11.9-5.5c4.3-0.1,8.1,1.4,11.2,4.5c3,3,4.5,6.6,4.5,10.6
				c0,4.5-2,8.9-5.5,12.5L346,501.9c-3.3,3.3-3.3,8.7,0,12.1c3.3,3.3,8.7,3.3,12.1,0l42.7-42.7c6.8-6.8,10.5-15.5,10.5-24.6
				c0-8.5-3.4-16.5-9.5-22.7c-6.5-6.5-15.1-9.8-24-9.5c-8.6,0.4-16.8,4.1-23.3,10.5L295.3,484.4z"/>
			<path class="st0" d="M360.6,234.9c0-51.8-42.1-93.9-93.9-93.9c-36.4,0-69.8,21.3-85.1,54.3c-2,4.3-0.1,9.4,4.1,11.3
				c4.3,2,9.3,0.1,11.3-4.1c12.6-27,39.9-44.4,69.7-44.4c42.3,0,76.8,34.4,76.8,76.8c0,50.1-51,129.7-136.5,178
				C121.4,364.6,70.5,285,70.5,234.9c0-42.4,34.4-76.8,76.8-76.8c10.7,0,21,2.1,30.7,6.4c4.3,1.9,9.4-0.1,11.2-4.4
				c1.9-4.3-0.1-9.3-4.4-11.2c-11.9-5.2-24.5-7.8-37.6-7.8c-51.8,0-93.9,42.1-93.9,93.9c0,55.1,52.4,142.3,149.5,195.2
				c1.3,0.7,2.7,1,4.1,1c1.4,0,2.8-0.4,4.1-1C308.2,377.1,360.6,290,360.6,234.9z"/>
			<path class="st0" d="M428.9,294.6c-18.8,0-34.1,15.3-34.1,34.1v67.6c0,4.7,3.8,8.5,8.5,8.5s8.5-3.8,8.5-8.5v-67.6
				c0-9.4,7.7-17.1,17.1-17.1s17.1,7.7,17.1,17.1v128c0,23.6-13.5,35.7-14.6,36.6l-68.3,68.3c-3.3,3.3-3.3,8.7,0,12.1
				c1.7,1.7,3.8,2.5,6,2.5s4.4-0.8,6-2.5l67.7-67.8c0.8-0.7,20.1-17.3,20.1-49.2v-128C463,309.9,447.7,294.6,428.9,294.6z"/>
			<path class="st0" d="M403.3,601.8H266.7c-4.7,0-8.5,3.8-8.5,8.5v34.1c0,4.7,3.8,8.5,8.5,8.5c4.7,0,8.5-3.8,8.5-8.5v-25.6h119.5
				v25.6c0,4.7,3.8,8.5,8.5,8.5s8.5-3.8,8.5-8.5v-34.1C411.8,605.6,408,601.8,403.3,601.8z"/>
			<path class="st0" d="M281,194.6c12,4.3,21.7,14,26,26c1.2,3.5,4.5,5.7,8,5.7c0.9,0,1.9-0.2,2.9-0.5c4.4-1.6,6.8-6.5,5.2-10.9
				c-6-17.1-19.3-30.3-36.3-36.4c-4.4-1.6-9.3,0.8-10.9,5.2C274.3,188.2,276.6,193.1,281,194.6z"/>
		</g>
	</g>
</g>
</svg>
